# Blender v2.93.0 OBJ File: ''
# www.blender.org
mtllib enemyobj.mtl
o mob_Cube.001_Cube.000_Cube.001_Cube.000
v 0.568009 0.241690 1.175651
v 0.946682 0.184687 1.175651
v 0.946682 0.244503 1.175651
v 0.568009 0.301506 1.175651
v -0.946682 0.184687 1.175651
v -0.568009 0.241690 1.175651
v -0.568009 0.301506 1.175651
v -0.946682 0.244503 1.175651
v -0.189336 0.287632 1.175651
v -0.189336 0.347448 1.175651
v 0.189336 0.287632 1.175651
v 0.189336 0.347448 1.175651
v 0.757346 0.547462 1.175651
v -0.757346 0.547462 1.175651
v -0.378673 0.475777 1.175651
v 0.000000 0.497448 1.175651
v 0.378673 0.475777 1.175651
v 0.568009 0.241690 1.044425
v 0.568009 0.301506 1.044425
v 0.946682 0.244503 1.044425
v 0.946682 0.184687 1.044425
v -0.946682 0.184687 1.044425
v -0.946682 0.244503 1.044425
v -0.568009 0.301506 1.044425
v -0.568009 0.241690 1.044425
v -0.189336 0.347448 1.044425
v -0.189336 0.287632 1.044425
v 0.189336 0.347448 1.044425
v 0.189336 0.287632 1.044425
v 0.757346 0.547462 1.044425
v -0.757346 0.547462 1.044425
v -0.378673 0.475777 1.044425
v 0.000000 0.497448 1.044425
v 0.378673 0.475777 1.044425
v 0.000000 0.908334 1.000000
v -1.000000 1.175956 1.000000
v -1.000000 1.527798 1.000000
v 0.000000 1.071196 1.000000
v 1.000000 1.175956 1.000000
v 1.000000 1.527798 1.000000
v 0.000000 0.908334 1.044005
v 0.000000 1.071196 1.044005
v -1.000000 1.527798 1.044005
v -1.000000 1.175956 1.044005
v 1.000000 1.175956 1.044005
v 1.000000 1.527798 1.044005
v -1.000000 0.464838 1.000000
v -1.000000 2.440455 1.000000
v -1.000000 2.440455 -1.000000
v -1.000000 0.464838 -1.000000
v 0.000000 0.464838 -1.000000
v 0.000000 2.440455 -1.000000
v 1.000000 2.440455 -1.000000
v 1.000000 0.464838 -1.000000
v 1.000000 2.440455 1.000000
v 1.000000 0.464838 1.000000
v 0.000000 0.010032 -1.000000
v 1.000000 0.010032 -1.000000
v 1.000000 0.010032 1.000000
v 0.000000 0.010032 1.000000
v 0.000000 2.440455 1.000000
v 1.000000 0.182607 1.000000
v 1.000000 0.182607 1.219034
v 1.000000 0.010032 1.219034
v 1.000000 0.182607 -1.000000
v 0.000000 0.182607 -1.000000
v -1.000000 0.010032 1.000000
v -1.000000 0.182607 1.000000
v -1.000000 0.182607 -1.000000
v -1.000000 0.010032 -1.000000
v 0.000000 0.010032 1.219034
v 0.000000 0.323222 1.219034
v -1.000000 0.182607 1.219034
v -1.000000 0.010032 1.219034
v 0.000000 0.323222 1.000000
v 0.000000 0.464838 1.000000
vt 0.735859 0.490004
vt 0.796211 0.490025
vt 0.796208 0.499558
vt 0.735856 0.499537
vt 0.728405 0.815277
vt 0.788757 0.815298
vt 0.788753 0.824831
vt 0.728401 0.824810
vt 0.784781 0.681422
vt 0.845133 0.681422
vt 0.845133 0.690955
vt 0.784781 0.690955
vt 0.784781 0.671007
vt 0.845133 0.671007
vt 0.845133 0.680540
vt 0.784781 0.680540
vt 0.785630 0.708115
vt 0.845982 0.708115
vt 0.845982 0.717649
vt 0.785630 0.717649
vt 0.732794 0.650177
vt 0.783900 0.682278
vt 0.732794 0.706911
vt 0.680806 0.650177
vt 0.731912 0.682278
vt 0.680806 0.706911
vt 0.680806 0.708115
vt 0.741157 0.708115
vt 0.710982 0.732022
vt 0.735856 0.320076
vt 0.796208 0.320076
vt 0.766032 0.343982
vt 0.680806 0.732903
vt 0.741157 0.732903
vt 0.710982 0.756810
vt 0.728401 0.835246
vt 0.728401 0.825712
vt 0.788753 0.825712
vt 0.788753 0.835246
vt 0.785630 0.728063
vt 0.785630 0.718530
vt 0.845982 0.718530
vt 0.845982 0.728063
vt 0.784781 0.670126
vt 0.784781 0.660592
vt 0.845133 0.660592
vt 0.845133 0.670126
vt 0.784781 0.659711
vt 0.784781 0.650177
vt 0.845133 0.650177
vt 0.845133 0.659711
vt 0.784781 0.701370
vt 0.784781 0.691836
vt 0.845133 0.691836
vt 0.845133 0.701370
vt 0.680806 0.600373
vt 0.710981 0.552330
vt 0.741157 0.600373
vt 0.680806 0.649296
vt 0.710981 0.601254
vt 0.741157 0.649296
vt 0.735856 0.418346
vt 0.766032 0.394439
vt 0.796208 0.418346
vt 0.735856 0.368770
vt 0.766032 0.344863
vt 0.796208 0.368770
vt 0.735856 0.393558
vt 0.766032 0.369651
vt 0.796208 0.393558
vt 0.720243 0.757691
vt 0.741157 0.757691
vt 0.741157 0.767224
vt 0.720243 0.767224
vt 0.340990 0.754058
vt 0.320076 0.754058
vt 0.320076 0.697325
vt 0.340990 0.697325
vt 0.742039 0.573245
vt 0.742039 0.552330
vt 0.802390 0.552330
vt 0.802390 0.573245
vt 0.784749 0.764848
vt 0.763834 0.764848
vt 0.763834 0.708115
vt 0.784749 0.708115
vt 0.742039 0.708115
vt 0.762953 0.708115
vt 0.762953 0.764848
vt 0.742039 0.764848
vt 0.819916 0.624307
vt 0.819916 0.645222
vt 0.781418 0.645222
vt 0.781418 0.624307
vt 0.780537 0.624307
vt 0.780537 0.645222
vt 0.742039 0.645222
vt 0.742039 0.624307
vt 0.349766 0.717582
vt 0.349766 0.696667
vt 0.359299 0.696667
vt 0.359299 0.717582
vt 0.742039 0.595040
vt 0.742039 0.574126
vt 0.802390 0.574126
vt 0.802390 0.595040
vt 0.358574 0.783325
vt 0.358574 0.804240
vt 0.320076 0.804240
vt 0.320076 0.783325
vt 0.766900 0.793481
vt 0.766900 0.814396
vt 0.728401 0.814396
vt 0.728401 0.793481
vt 0.735856 0.461937
vt 0.735856 0.441023
vt 0.796208 0.441023
vt 0.796208 0.461937
vt 0.806279 0.793481
vt 0.806279 0.814396
vt 0.767781 0.814396
vt 0.767781 0.793481
vt 0.735856 0.483733
vt 0.735856 0.462818
vt 0.796208 0.462818
vt 0.796208 0.483733
vt 0.320076 0.639711
vt 0.340990 0.639711
vt 0.340990 0.696444
vt 0.320076 0.696444
vt 0.735856 0.440141
vt 0.735856 0.419227
vt 0.796208 0.419227
vt 0.796208 0.440141
vt 0.816327 0.595922
vt 0.816327 0.616836
vt 0.777829 0.616836
vt 0.777829 0.595922
vt 0.734975 0.320076
vt 0.734975 0.485061
vt 0.680806 0.499558
vt 0.709901 0.326786
vt 0.843500 0.551449
vt 0.680806 0.524051
vt 0.691587 0.500439
vt 0.866791 0.500439
vt 0.727520 0.820879
vt 0.716739 0.844491
vt 0.541534 0.844491
vt 0.564825 0.793481
vt 0.526156 0.793481
vt 0.540653 0.847650
vt 0.367881 0.818555
vt 0.361171 0.793481
vt 0.856011 0.792600
vt 0.680806 0.792600
vt 0.680806 0.785586
vt 0.856011 0.785587
vt 0.356779 0.639711
vt 0.356779 0.695786
vt 0.349766 0.695786
vt 0.349766 0.639711
vt 0.341871 0.695786
vt 0.341871 0.639711
vt 0.348885 0.639711
vt 0.348885 0.695786
vt 0.680806 0.769797
vt 0.845791 0.769797
vt 0.845791 0.776811
vt 0.680806 0.776811
vt 0.680806 0.777692
vt 0.845791 0.777692
vt 0.845791 0.784705
vt 0.680806 0.784705
vt 0.536376 0.855545
vt 0.361171 0.855545
vt 0.361171 0.848532
vt 0.536376 0.848532
vt 0.045422 0.320076
vt 0.360289 0.320076
vt 0.360289 0.638829
vt 0.045422 0.638829
vt 0.045422 0.159818
vt 0.360289 0.159818
vt 0.360289 0.319194
vt 0.045422 0.319194
vt 0.679924 0.406152
vt 0.679924 0.721019
vt 0.361171 0.721019
vt 0.361171 0.406152
vt 0.840182 0.319194
vt 0.680806 0.319194
vt 0.680806 0.000441
vt 0.840182 0.000441
vt 0.159817 0.958464
vt 0.000441 0.958464
vt 0.000441 0.639711
vt 0.159817 0.639711
vt 0.776948 0.595922
vt 0.776948 0.623426
vt 0.742039 0.623426
vt 0.742039 0.595922
vt 0.860288 0.902144
vt 0.860288 0.929648
vt 0.541534 0.929648
vt 0.541534 0.902144
vt 0.700911 0.958034
vt 0.700911 0.930529
vt 0.860288 0.930529
vt 0.860288 0.958034
vt 0.541534 0.872877
vt 0.541534 0.845372
vt 0.860288 0.845372
vt 0.860288 0.872877
vt 0.700911 0.873758
vt 0.700911 0.901262
vt 0.541534 0.901262
vt 0.541534 0.873758
vt 0.520548 0.792600
vt 0.361171 0.792600
vt 0.361171 0.757691
vt 0.520548 0.757691
vt 0.354985 0.754939
vt 0.354985 0.782444
vt 0.320076 0.782444
vt 0.320076 0.754939
vt 0.520548 0.721901
vt 0.679924 0.721901
vt 0.679924 0.756810
vt 0.520548 0.756810
vt 0.361171 0.721901
vt 0.361171 0.756810
vt 0.679924 0.792600
vt 0.679924 0.757691
vt 0.860288 0.873758
vt 0.860288 0.901262
vt 0.541534 0.958034
vt 0.541534 0.930529
vt 0.319194 0.958464
vt 0.319194 0.639711
vt 0.999559 0.319194
vt 0.999559 0.000441
vt 0.520548 0.045422
vt 0.520548 0.360289
vt 0.361171 0.360289
vt 0.361171 0.045422
vt 0.679924 0.045422
vt 0.679924 0.360289
vt 0.045422 0.000441
vt 0.360289 0.000441
vt 0.000441 0.000441
vt 0.000441 0.159818
vt 0.679924 0.000441
vt 0.520548 0.000441
vt 0.361171 0.000441
vt 0.679924 0.361171
vt 0.361171 0.361171
vt 0.000441 0.319194
vt 0.000441 0.320076
vt 0.000441 0.638829
vn 0.0000 0.0000 1.0000
vn 0.0000 0.0000 -1.0000
vn 1.0000 0.0000 0.0000
vn -0.8480 0.5300 0.0000
vn 0.1204 -0.9927 -0.0000
vn -0.7924 0.6100 0.0000
vn 0.7924 0.6100 0.0000
vn -0.6210 0.7838 0.0000
vn 0.6772 0.7358 0.0000
vn -1.0000 0.0000 0.0000
vn -0.1489 -0.9889 -0.0000
vn -0.6772 0.7358 0.0000
vn 0.5611 0.8278 0.0000
vn -0.1204 -0.9927 -0.0000
vn 0.6210 0.7838 0.0000
vn 0.1489 -0.9889 -0.0000
vn 0.8480 0.5300 0.0000
vn 0.0000 -1.0000 0.0000
vn -0.5611 0.8278 0.0000
vn -0.4154 0.9097 0.0000
vn 0.2585 -0.9660 0.0000
vn -0.2585 -0.9660 0.0000
vn 0.4154 0.9097 0.0000
vn 0.0000 1.0000 0.0000
vn -0.1392 0.9903 0.0000
vn 0.1392 0.9903 0.0000
usemtl Material.001
s 1
f 1/1/1 2/2/1 3/3/1 4/4/1
f 5/5/1 6/6/1 7/7/1 8/8/1
f 6/9/1 9/10/1 10/11/1 7/12/1
f 9/13/1 11/14/1 12/15/1 10/16/1
f 11/17/1 1/18/1 4/19/1 12/20/1
f 4/21/1 3/22/1 13/23/1
f 8/24/1 7/25/1 14/26/1
f 7/27/1 10/28/1 15/29/1
f 10/30/1 12/31/1 16/32/1
f 12/33/1 4/34/1 17/35/1
f 18/36/2 19/37/2 20/38/2 21/39/2
f 22/40/2 23/41/2 24/42/2 25/43/2
f 25/44/2 24/45/2 26/46/2 27/47/2
f 27/48/2 26/49/2 28/50/2 29/51/2
f 29/52/2 28/53/2 19/54/2 18/55/2
f 19/56/2 30/57/2 20/58/2
f 23/59/2 31/60/2 24/61/2
f 24/62/2 32/63/2 26/64/2
f 26/65/2 33/66/2 28/67/2
f 28/68/2 34/69/2 19/70/2
f 2/71/3 21/72/3 20/73/3 3/74/3
f 14/75/4 31/76/4 23/77/4 8/78/4
f 6/79/5 25/80/5 27/81/5 9/82/5
f 13/83/6 30/84/6 19/85/6 4/86/6
f 7/87/7 24/88/7 31/89/7 14/90/7
f 16/91/8 33/92/8 26/93/8 10/94/8
f 4/95/9 19/96/9 34/97/9 17/98/9
f 8/99/10 23/100/10 22/101/10 5/102/10
f 1/103/11 18/104/11 21/105/11 2/106/11
f 15/107/12 32/108/12 24/109/12 7/110/12
f 10/111/13 26/112/13 32/113/13 15/114/13
f 11/115/14 29/116/14 18/117/14 1/118/14
f 12/119/15 28/120/15 33/121/15 16/122/15
f 5/123/16 22/124/16 25/125/16 6/126/16
f 3/127/17 20/128/17 30/129/17 13/130/17
f 9/131/18 27/132/18 29/133/18 11/134/18
f 17/135/19 34/136/19 28/137/19 12/138/19
f 35/139/2 36/140/2 37/141/2 38/142/2
f 39/143/2 35/144/2 38/145/2 40/146/2
f 41/147/1 42/148/1 43/149/1 44/150/1
f 45/151/1 46/152/1 42/153/1 41/154/1
f 40/155/20 38/156/20 42/157/20 46/158/20
f 39/159/3 40/160/3 46/161/3 45/162/3
f 37/163/10 36/164/10 44/165/10 43/166/10
f 35/167/21 39/168/21 45/169/21 41/170/21
f 36/171/22 35/172/22 41/173/22 44/174/22
f 38/175/23 37/176/23 43/177/23 42/178/23
f 47/179/10 48/180/10 49/181/10 50/182/10
f 51/183/2 52/184/2 53/185/2 54/186/2
f 54/187/3 53/188/3 55/189/3 56/190/3
f 57/191/18 58/192/18 59/193/18 60/194/18
f 52/195/24 49/196/24 48/197/24 61/198/24
f 59/199/3 62/200/3 63/201/3 64/202/3
f 58/203/3 65/204/3 62/205/3 59/206/3
f 57/207/2 66/208/2 65/209/2 58/210/2
f 67/211/10 68/212/10 69/213/10 70/214/10
f 71/215/1 72/216/1 73/217/1 74/218/1
f 75/219/25 68/220/25 73/221/25 72/222/25
f 68/223/10 67/224/10 74/225/10 73/226/10
f 60/227/18 59/228/18 64/229/18 71/230/18
f 67/231/18 60/227/18 71/230/18 74/232/18
f 62/233/26 75/219/26 72/222/26 63/234/26
f 64/235/1 63/236/1 72/216/1 71/215/1
f 70/237/2 69/238/2 66/208/2 57/207/2
f 53/239/24 52/195/24 61/198/24 55/240/24
f 70/241/18 57/191/18 60/194/18 67/242/18
f 76/243/1 61/244/1 48/245/1 47/246/1
f 56/247/1 55/248/1 61/244/1 76/243/1
f 50/249/2 49/250/2 52/184/2 51/183/2
f 69/251/2 50/249/2 51/183/2 66/252/2
f 62/253/1 56/247/1 76/243/1 75/254/1
f 75/254/1 76/243/1 47/246/1 68/255/1
f 65/256/3 54/187/3 56/190/3 62/257/3
f 66/252/2 51/183/2 54/186/2 65/258/2
f 68/259/10 47/179/10 50/182/10 69/260/10
